<?xml version="1.0" encoding="UTF-8" standalone="no"?>
<!-- Created with Inkscape (http://www.inkscape.org/) -->

<svg
   width="1152"
   height="648"
   viewBox="0 0 304.79999 171.45"
   version="1.1"
   id="svg1"
   inkscape:version="1.3.2 (091e20e, 2023-11-25, custom)"
   sodipodi:docname="game_over_menu.svg"
   inkscape:export-filename="background.png"
   inkscape:export-xdpi="96"
   inkscape:export-ydpi="96"
   xmlns:inkscape="http://www.inkscape.org/namespaces/inkscape"
   xmlns:sodipodi="http://sodipodi.sourceforge.net/DTD/sodipodi-0.dtd"
   xmlns="http://www.w3.org/2000/svg"
   xmlns:svg="http://www.w3.org/2000/svg">
  <sodipodi:namedview
     id="namedview1"
     pagecolor="#ffffff"
     bordercolor="#000000"
     borderopacity="0.25"
     inkscape:showpageshadow="2"
     inkscape:pageopacity="0.0"
     inkscape:pagecheckerboard="0"
     inkscape:deskcolor="#d1d1d1"
     inkscape:document-units="px"
     inkscape:zoom="0.97890839"
     inkscape:cx="529.67163"
     inkscape:cy="316.1685"
     inkscape:window-width="1920"
     inkscape:window-height="991"
     inkscape:window-x="-9"
     inkscape:window-y="-9"
     inkscape:window-maximized="1"
     inkscape:current-layer="layer1" />
  <defs
     id="defs1" />
  <g
     inkscape:label="Layer 1"
     inkscape:groupmode="layer"
     id="layer1">
    <rect
       style="fill:#4d4d4d;fill-opacity:1;fill-rule:nonzero;stroke:#000000;stroke-width:0;stroke-linecap:round;stroke-dasharray:none"
       id="rect7"
       width="304.79999"
       height="171.45"
       x="0"
       y="3.5527137e-15" />
    <circle
       style="fill:#ffe92f;fill-opacity:1;stroke:#000000;stroke-width:2.10343;stroke-dasharray:none"
       id="path1-4"
       cy="-177.64117"
       cx="-227.48749"
       r="15.775726"
       transform="rotate(166.71547)" />
    <ellipse
       style="display:inline;fill:#ffe92f;fill-opacity:1;stroke:#000000;stroke-width:2.10343;stroke-linecap:square;stroke-linejoin:miter;stroke-miterlimit:4;stroke-dasharray:none;paint-order:normal"
       id="path2-9"
       cx="-212.39769"
       cy="-188.61555"
       rx="4.8013077"
       ry="4.8013086"
       transform="rotate(166.71547)" />
    <ellipse
       style="display:inline;fill:#ffe92f;fill-opacity:1;stroke:#000000;stroke-width:2.10343;stroke-linecap:square;stroke-linejoin:miter;stroke-miterlimit:4;stroke-dasharray:none;paint-order:normal"
       id="path2-7-5"
       cx="-212.39769"
       cy="-166.66676"
       rx="4.8013077"
       ry="4.8013086"
       transform="rotate(166.71547)" />
    <circle
       style="display:inline;fill:#f8c574;stroke:#000000;stroke-width:2.83852;stroke-dasharray:none"
       id="path1-9"
       cy="47.630112"
       cx="-129.10583"
       r="32.643013"
       transform="rotate(-85.920061)" />
    <path
       d="M 7.5554784,136.90368 A 31.223748,31.223748 0 0 1 39.535504,115.17946 31.223748,31.223748 0 0 1 68.051057,141.4022 31.223748,31.223748 0 0 0 69.46838,134.38894 31.223748,31.223748 0 0 0 40.545281,101.02283 31.223748,31.223748 0 0 0 7.1791488,129.94592 31.223748,31.223748 0 0 0 7.5554784,136.90368 Z"
       style="display:inline;fill:#ff6a00;fill-opacity:1;stroke:#000000;stroke-width:0"
       id="path13" />
    <rect
       style="display:inline;fill:#694813;fill-opacity:1;stroke:#000000;stroke-width:2.56855;stroke-linecap:round;stroke-linejoin:round;stroke-dasharray:none"
       id="rect1-8"
       width="25.685488"
       height="8.9899206"
       x="-90.997078"
       y="42.542458"
       rx="0.17238584"
       ry="1.1253987e-14"
       transform="rotate(-85.920061)" />
    <ellipse
       style="display:inline;fill:#f8c574;stroke:#000000;stroke-width:2.83852;stroke-linecap:square;stroke-linejoin:miter;stroke-miterlimit:4;stroke-dasharray:none;paint-order:normal"
       id="path2-8-6"
       cx="-94.688713"
       cy="50.468639"
       rx="9.9348288"
       ry="9.9348297"
       transform="rotate(-85.920061)" />
    <path
       d="m 36.139534,55.179954 3.890085,13.152831 4.48357,0.319809 5.717568,-12.467528 -4.48357,-0.319808 -0.320281,-0.02285 -4.48357,-0.319808 -0.320222,-0.02284 z"
       style="display:inline;fill:#ff6a00;fill-opacity:1;stroke:#000000;stroke-width:2.56855;stroke-linecap:round;stroke-linejoin:round;stroke-dasharray:none"
       id="path10" />
    <circle
       style="fill:#fffcfc;fill-opacity:1;stroke:#000000;stroke-width:2.48814;stroke-dasharray:none"
       id="path1"
       cy="-47.664909"
       cx="-12.430334"
       r="28.613647"
       transform="rotate(94.637558)" />
    <ellipse
       style="fill:#c30000;fill-opacity:1;stroke:#000000;stroke-width:2.55196;stroke-dasharray:none"
       id="path1-5"
       cy="71.20546"
       cx="39.546284"
       transform="matrix(0.77158649,0.63612443,-0.61415323,0.7891868,0,0)"
       rx="29.25522"
       ry="29.440042" />
    <ellipse
       style="display:inline;fill:#c30000;fill-opacity:1;stroke:#000000;stroke-width:2.55196;stroke-linecap:square;stroke-linejoin:miter;stroke-miterlimit:4;stroke-dasharray:none;paint-order:normal"
       id="path2-90"
       cx="70.634262"
       cy="53.219658"
       rx="8.9037619"
       ry="8.9600134"
       transform="matrix(0.77158649,0.63612443,-0.61415323,0.7891868,0,0)" />
    <ellipse
       style="display:inline;fill:#c30000;fill-opacity:1;stroke:#000000;stroke-width:2.55196;stroke-linecap:square;stroke-linejoin:miter;stroke-miterlimit:4;stroke-dasharray:none;paint-order:normal"
       id="path2-7-7"
       cx="67.529533"
       cy="91.685509"
       rx="8.9037619"
       ry="8.9600134"
       transform="matrix(0.77158649,0.63612443,-0.61415323,0.7891868,0,0)" />
    <ellipse
       style="display:inline;fill:#fffcfc;fill-opacity:1;stroke:#000000;stroke-width:2.48814;stroke-linecap:square;stroke-linejoin:miter;stroke-miterlimit:4;stroke-dasharray:none;paint-order:normal"
       id="path2"
       cx="14.939232"
       cy="-67.570053"
       rx="8.7085018"
       ry="8.7085028"
       transform="rotate(94.637558)" />
    <ellipse
       style="display:inline;fill:#fffcfc;fill-opacity:1;stroke:#000000;stroke-width:2.48814;stroke-linecap:square;stroke-linejoin:miter;stroke-miterlimit:4;stroke-dasharray:none;paint-order:normal"
       id="path2-7"
       cx="14.939232"
       cy="-27.759762"
       rx="8.7085018"
       ry="8.7085028"
       transform="rotate(94.637558)" />
    <circle
       style="fill:#003db3;fill-opacity:1;stroke:#000000;stroke-width:2.58565;stroke-dasharray:none"
       id="path1-2"
       cy="-113.34403"
       cx="-136.05692"
       transform="rotate(-160.74613)"
       r="33.613419" />
    <ellipse
       style="display:inline;fill:#003db3;fill-opacity:1;stroke:#000000;stroke-width:2.58565;stroke-linecap:square;stroke-linejoin:miter;stroke-miterlimit:4;stroke-dasharray:none;paint-order:normal"
       id="path2-8"
       cx="-103.90496"
       cy="-136.72729"
       rx="10.23017"
       ry="10.230171"
       transform="rotate(-160.74613)" />
    <ellipse
       style="display:inline;fill:#003db3;fill-opacity:1;stroke:#000000;stroke-width:2.58565;stroke-linecap:square;stroke-linejoin:miter;stroke-miterlimit:4;stroke-dasharray:none;paint-order:normal"
       id="path2-7-4"
       cx="-103.90496"
       cy="-89.960808"
       rx="10.23017"
       ry="10.230171"
       transform="rotate(-160.74613)" />
    <path
       d="m 40.765724,33.382753 7.59464,0.503205 0.900176,-13.585961 c 0.151311,-2.283656 -1.426125,-4.247526 -3.523351,-4.386483 -2.09717,-0.138955 -3.919978,1.599625 -4.071288,3.883277 z"
       style="fill:#ffd500;stroke:#000000;stroke-width:2.5371;stroke-linecap:round;stroke-dasharray:none"
       id="path1-1"
       inkscape:transform-center-x="-11.386233"
       inkscape:transform-center-y="10.325576" />
    <text
       xml:space="preserve"
       style="font-size:11.2777px;font-family:CocogooseProTrial;-inkscape-font-specification:CocogooseProTrial;display:none;fill:#fffcfc;fill-opacity:1;stroke:#000000;stroke-width:0;stroke-linecap:round;stroke-dasharray:none"
       x="119.55114"
       y="89.622093"
       id="text2"
       transform="scale(1.0029548,0.9970539)"><tspan
         sodipodi:role="line"
         id="tspan2"
         style="font-size:11.2777px;stroke-width:0"
         x="119.55114"
         y="89.622093">Try again</tspan></text>
    <text
       xml:space="preserve"
       style="font-size:11.2199px;font-family:CocogooseProTrial;-inkscape-font-specification:CocogooseProTrial;display:none;fill:#fffcfc;fill-opacity:1;stroke:#000000;stroke-width:0;stroke-linecap:round;stroke-dasharray:none"
       x="106.25744"
       y="104.70012"
       id="text3"
       transform="scale(1.0088464,0.99123117)"><tspan
         sodipodi:role="line"
         id="tspan3"
         style="stroke-width:0"
         x="106.25744"
         y="104.70012">Back to menu</tspan></text>
    <text
       xml:space="preserve"
       style="font-size:25.3302px;font-family:CocogooseProTrial;-inkscape-font-specification:CocogooseProTrial;display:none;fill:#ffffff;fill-opacity:1;stroke:#000000;stroke-width:0;stroke-linecap:round;stroke-dasharray:none"
       x="69.718689"
       y="63.303783"
       id="text1"
       transform="scale(1.0033444,0.99666675)"><tspan
         sodipodi:role="line"
         id="tspan1"
         style="fill:#ffffff;fill-opacity:1;stroke-width:0;stroke-dasharray:none"
         x="69.718689"
         y="63.303783">Game Over</tspan></text>
    <path
       d="m 82.588065,54.996567 q 0,-0.544735 0.544735,-0.544735 h 3.540781 q 0.544736,0 0.544736,0.544735 v 6.141893 q 0,0.42217 -0.326842,0.653682 -1.280128,0.885196 -2.914335,1.375458 -1.620588,0.476643 -3.350123,0.476643 -2.764532,0 -5.052422,-1.334602 -2.27427,-1.334602 -3.595254,-3.608872 -1.307365,-2.274271 -1.307365,-4.997949 0,-2.723677 1.307365,-4.997948 1.320984,-2.27427 3.595254,-3.581635 2.274271,-1.320984 5.052422,-1.320984 1.68868,0 3.227558,0.517499 1.552496,0.517498 2.805388,1.457167 0.231512,0.177039 0.231512,0.408552 0,0.177039 -0.136184,0.354078 l -2.206178,2.887098 q -0.190658,0.231512 -0.408552,0.231512 -0.177039,0 -0.354078,-0.122565 -0.694538,-0.476644 -1.511641,-0.749011 -0.817103,-0.285986 -1.647825,-0.285986 -1.320983,0 -2.464928,0.694537 -1.143944,0.68092 -1.838482,1.879338 -0.68092,1.198418 -0.68092,2.641967 0,1.457167 0.68092,2.69644 0.694538,1.225655 1.838482,1.94743 1.157563,0.721774 2.464928,0.721774 1.089471,0 1.961048,-0.285986 z m 19.937305,-7.748862 q 0.17703,-0.42217 0.62644,-0.42217 h 2.61473 q 0.54474,0 0.54474,0.544735 v 15.388778 q 0,0.544735 -0.54474,0.544735 h -2.71006 q -0.4494,0 -0.62644,-0.42217 l -0.34046,-0.817103 q -1.7023,1.593351 -4.276177,1.593351 -2.328744,0 -4.289792,-1.143944 -1.961048,-1.157563 -3.104992,-3.118611 -1.143945,-1.974666 -1.143945,-4.317028 0,-2.328745 1.143945,-4.276174 1.157563,-1.961048 3.11861,-3.104992 1.961048,-1.143945 4.276174,-1.143945 2.601107,0 4.317027,1.620588 z m -4.630257,11.984181 q 1.130326,0 2.056377,-0.517499 0.93967,-0.531117 1.47079,-1.457168 0.54473,-0.939668 0.54473,-2.11085 0,-1.184799 -0.53112,-2.124468 -0.53111,-0.953287 -1.457163,-1.498023 -0.926051,-0.544735 -2.056377,-0.544735 -1.130326,0 -2.056376,0.544735 -0.912432,0.531118 -1.443549,1.484405 -0.517499,0.953287 -0.517499,2.138086 0,1.1848 0.517499,2.11085 0.517498,0.926051 1.416312,1.457168 0.912432,0.517499 2.056376,0.517499 z M 129.54424,46.416983 q 1.86572,0 3.24118,0.857959 1.37546,0.84434 2.12447,2.53302 0.74901,1.675061 0.74901,4.099134 v 8.851952 q 0,0.544735 -0.54474,0.544735 h -3.54078 q -0.54473,0 -0.54473,-0.544735 v -8.688531 q 0,-1.525259 -0.70816,-2.396836 -0.70815,-0.885195 -2.02914,-0.885195 -0.84434,0 -1.52526,0.435788 -0.6673,0.42217 -1.07585,1.130326 -0.40855,0.708156 -0.47664,1.538878 v 8.86557 q 0,0.544735 -0.54474,0.544735 h -3.54078 q -0.54473,0 -0.54473,-0.544735 v -8.688531 q 0,-1.525259 -0.70816,-2.396836 -0.70816,-0.885195 -2.02914,-0.885195 -0.89881,0 -1.60697,0.490262 -0.69454,0.476643 -1.08947,1.26651 -0.39493,0.789866 -0.39493,1.675061 v 8.538729 q 0,0.544735 -0.54474,0.544735 h -3.54078 q -0.54474,0 -0.54474,-0.544735 V 47.37027 q 0,-0.544735 0.54474,-0.544735 h 2.71006 q 0.23151,0 0.38131,0.108947 0.14981,0.09533 0.24513,0.313223 l 0.35408,0.857958 q 0.96691,-0.817103 2.16533,-1.252891 1.19841,-0.435789 2.57387,-0.435789 1.60697,0 2.85986,0.640064 1.25289,0.640065 2.04276,1.879338 1.00776,-1.212037 2.42407,-1.865719 1.42993,-0.653683 3.11861,-0.653683 z m 17.03662,17.295352 q -2.46493,0 -4.42598,-1.157563 -1.96104,-1.157563 -3.06413,-3.118611 -1.08947,-1.961047 -1.08947,-4.276173 0,-2.342363 1.03499,-4.30341 1.04862,-1.974667 2.91434,-3.13223 1.86572,-1.171181 4.23532,-1.171181 2.56025,0 4.43959,1.10309 1.87934,1.103089 2.85986,3.050518 0.99415,1.94743 0.99415,4.425976 0,0.544736 -0.0545,1.075853 -0.0545,0.50388 -0.57197,0.50388 h -11.09899 q 0.44941,1.361839 1.53888,2.124468 1.08947,0.76263 2.47855,0.76263 0.88519,0 1.59335,-0.245131 0.72177,-0.258749 1.40269,-0.735393 0.17704,-0.136184 0.35408,-0.136184 0.2179,0 0.39493,0.245131 l 1.67507,2.383218 q 0.12256,0.177039 0.12256,0.34046 0,0.231512 -0.21789,0.408551 -1.13033,0.885196 -2.53302,1.375457 -1.38908,0.476644 -2.98243,0.476644 z m 3.32289,-10.404448 q -0.38132,-1.34822 -1.30737,-2.069995 -0.92605,-0.721774 -2.26065,-0.721774 -1.30737,0 -2.27427,0.735393 -0.95329,0.735393 -1.34822,2.056376 z m 23.11041,10.336356 q -2.76453,0 -5.05242,-1.334602 -2.27427,-1.334602 -3.59525,-3.608872 -1.30737,-2.274271 -1.30737,-4.997949 0,-2.723677 1.30737,-4.997948 1.32098,-2.27427 3.59525,-3.581635 2.27427,-1.320984 5.05242,-1.320984 2.76454,0 5.03881,1.320984 2.27427,1.320983 3.58163,3.595254 1.32099,2.260652 1.32099,4.984329 0,2.710059 -1.32099,4.997949 -1.30736,2.27427 -3.59525,3.608872 -2.27427,1.334602 -5.02519,1.334602 z m 0,-4.698343 q 1.32099,0 2.46493,-0.68092 1.14395,-0.694538 1.82487,-1.892956 0.68091,-1.212036 0.68091,-2.655585 0,-1.443549 -0.69453,-2.641967 -0.68092,-1.198418 -1.82487,-1.879338 -1.14394,-0.694537 -2.45131,-0.694537 -1.32098,0 -2.46492,0.694537 -1.14395,0.68092 -1.83849,1.879338 -0.68092,1.198418 -0.68092,2.641967 0,1.443549 0.68092,2.641967 0.69454,1.198418 1.83849,1.892956 1.15756,0.694538 2.46492,0.694538 z m 21.99368,3.922095 q -0.16342,0.435788 -0.62644,0.435788 h -3.54078 q -0.46303,0 -0.62645,-0.435788 l -5.95123,-15.416014 q -0.0545,-0.108947 -0.0545,-0.231513 0,-0.177039 0.12257,-0.285986 0.13618,-0.108947 0.3677,-0.108947 h 3.97656 q 0.49027,0 0.62645,0.449407 l 3.30927,10.431684 3.32289,-10.431684 q 0.13618,-0.449407 0.62644,-0.449407 h 3.97657 q 0.21789,0 0.35408,0.108947 0.13618,0.09533 0.13618,0.272368 0,0.136184 -0.0545,0.245131 z m 15.18449,0.84434 q -2.46493,0 -4.42598,-1.157563 -1.96105,-1.157563 -3.06414,-3.118611 -1.08947,-1.961047 -1.08947,-4.276173 0,-2.342363 1.035,-4.30341 1.04862,-1.974667 2.91433,-3.13223 1.86572,-1.171181 4.23532,-1.171181 2.56026,0 4.4396,1.10309 1.87933,1.103089 2.85986,3.050518 0.99414,1.94743 0.99414,4.425976 0,0.544736 -0.0545,1.075853 -0.0545,0.50388 -0.57198,0.50388 h -11.09898 q 0.44941,1.361839 1.53888,2.124468 1.08947,0.76263 2.47854,0.76263 0.8852,0 1.59335,-0.245131 0.72178,-0.258749 1.4027,-0.735393 0.17704,-0.136184 0.35408,-0.136184 0.21789,0 0.39493,0.245131 l 1.67506,2.383218 q 0.12257,0.177039 0.12257,0.34046 0,0.231512 -0.2179,0.408551 -1.13032,0.885196 -2.53302,1.375457 -1.38907,0.476644 -2.98242,0.476644 z m 3.32288,-10.404448 q -0.38131,-1.34822 -1.30736,-2.069995 -0.92605,-0.721774 -2.26065,-0.721774 -1.30737,0 -2.27428,0.735393 -0.95328,0.735393 -1.34822,2.056376 z m 16.00161,-6.75472 q 1.67506,0 3.30927,0.966906 0.28598,0.177039 0.28598,0.435788 0,0.149802 -0.0817,0.313223 l -1.56611,2.941572 q -0.16342,0.299604 -0.42217,0.299604 -0.16342,0 -0.31322,-0.09533 -0.98053,-0.544735 -1.87934,-0.544735 -0.85796,0 -1.64783,0.490262 -0.77624,0.490262 -1.26651,1.457167 -0.49026,0.953287 -0.49026,2.301508 v 7.639915 q 0,0.544735 -0.54473,0.544735 h -3.54078 q -0.54474,0 -0.54474,-0.544735 V 47.37027 q 0,-0.544735 0.54474,-0.544735 h 2.71006 q 0.4494,0 0.62644,0.42217 l 0.6673,1.593351 q 0.64007,-1.062234 1.71592,-1.675061 1.07585,-0.612828 2.43769,-0.612828 z"
       id="text4"
       style="font-size:25.3302px;font-family:CocogooseProTrial;-inkscape-font-specification:CocogooseProTrial;display:inline;fill:#ffffff;stroke:#000000;stroke-width:0;stroke-linecap:round"
       transform="scale(1.0033444,0.99666675)"
       aria-label="Game Over" />
    <path
       d="m 124.23199,89.379562 q 0,0.242531 -0.24253,0.242531 h -1.69772 q -0.24253,0 -0.24253,-0.242531 v -6.245178 h -2.04332 q -0.24254,0 -0.24254,-0.242531 v -1.546137 q 0,-0.242531 0.24254,-0.242531 h 6.27549 q 0.24253,0 0.24253,0.242531 v 1.546137 q 0,0.242531 -0.24253,0.242531 h -2.04939 z m 7.22743,-7.215303 q 0.74578,0 1.47337,0.430493 0.12733,0.07882 0.12733,0.194025 0,0.0667 -0.0364,0.139455 l -0.69727,1.309669 q -0.0728,0.133392 -0.18797,0.133392 -0.0727,0 -0.13945,-0.04244 -0.43656,-0.242531 -0.83673,-0.242531 -0.38199,0 -0.73366,0.218278 -0.34561,0.218278 -0.56389,0.648771 -0.21827,0.424429 -0.21827,1.024694 v 3.4015 q 0,0.242531 -0.24253,0.242531 h -1.57646 q -0.24253,0 -0.24253,-0.242531 v -6.851506 q 0,-0.242531 0.24253,-0.242531 h 1.2066 q 0.20008,0 0.27891,0.187961 l 0.2971,0.709404 q 0.28497,-0.472936 0.76397,-0.745783 0.479,-0.272848 1.08533,-0.272848 z m 5.92381,9.416274 q -0.0728,0.194025 -0.27891,0.194025 h -1.6674 q -0.10308,0 -0.15765,-0.04244 -0.0546,-0.04244 -0.0546,-0.121266 0,-0.06063 0.0243,-0.115202 l 0.76397,-1.90387 -2.67997,-7.027341 q -0.0182,-0.05457 -0.0182,-0.103076 0,-0.08489 0.0546,-0.127329 0.0546,-0.04851 0.15158,-0.04851 h 1.77048 q 0.21828,0 0.27891,0.200088 l 1.47338,4.505017 1.4855,-4.505017 q 0.0606,-0.200088 0.27891,-0.200088 h 1.77654 q 0.097,0 0.15159,0.04851 0.0606,0.04244 0.0606,0.127329 0,0.04851 -0.0182,0.103076 z m 12.84205,-9.107047 q 0.0788,-0.187961 0.27891,-0.187961 h 1.16415 q 0.24253,0 0.24253,0.242531 v 6.851506 q 0,0.242531 -0.24253,0.242531 h -1.2066 q -0.20008,0 -0.27891,-0.187961 l -0.15158,-0.363797 q -0.75791,0.709403 -1.90387,0.709403 -1.03682,0 -1.90993,-0.509315 -0.87311,-0.515379 -1.38243,-1.388491 -0.50931,-0.879176 -0.50931,-1.92206 0,-1.036821 0.50931,-1.90387 0.51538,-0.873112 1.38849,-1.382427 0.87311,-0.509316 1.90387,-0.509316 1.15809,0 1.92206,0.72153 z m -2.06152,5.335687 q 0.50325,0 0.91556,-0.230405 0.41836,-0.236468 0.65483,-0.648771 0.24253,-0.418366 0.24253,-0.939808 0,-0.527506 -0.23647,-0.945872 -0.23646,-0.42443 -0.64877,-0.666961 -0.4123,-0.242531 -0.91555,-0.242531 -0.50325,0 -0.91556,0.242531 -0.40624,0.236468 -0.64271,0.660898 -0.2304,0.424429 -0.2304,0.951935 0,0.527505 0.2304,0.939808 0.23041,0.412303 0.63059,0.648771 0.40624,0.230405 0.91555,0.230405 z m 8.73112,4.250359 q -0.75791,0 -1.57645,-0.224342 -0.81854,-0.224341 -1.33998,-0.551758 -0.10914,-0.07276 -0.10914,-0.200088 0,-0.07276 0.0303,-0.127329 l 0.62452,-1.242973 q 0.0667,-0.127328 0.20009,-0.127328 0.0667,0 0.12733,0.03638 0.40018,0.212215 0.92768,0.35167 0.53357,0.139456 0.97013,0.139456 0.50325,0 0.89736,-0.175835 0.39411,-0.169772 0.61239,-0.485063 0.21828,-0.321353 0.21828,-0.73972 v -0.03032 q -0.43049,0.33348 -0.85492,0.545695 -0.42443,0.212215 -0.90343,0.212215 -1.0247,0 -1.8493,-0.478999 -0.81854,-0.485063 -1.28542,-1.303605 -0.46081,-0.824607 -0.46081,-1.800795 0,-1.079263 0.46081,-1.928123 0.46081,-0.848859 1.27936,-1.321795 0.8246,-0.478999 1.86749,-0.478999 0.49718,0 1.03682,0.200089 0.53963,0.200088 0.87917,0.515378 l 0.15158,-0.36986 q 0.0303,-0.08489 0.10914,-0.133392 0.0788,-0.05457 0.16978,-0.05457 h 1.20659 q 0.10307,0 0.16977,0.07276 0.0728,0.0667 0.0728,0.169772 v 5.923824 q 0,1.012568 -0.46687,1.837174 -0.46081,0.824606 -1.29148,1.297542 -0.83067,0.472936 -1.87356,0.472936 z m 0,-4.559587 q 0.49113,0 0.87312,-0.212215 0.38805,-0.218278 0.60632,-0.600264 0.21828,-0.38805 0.21828,-0.879176 0,-0.503252 -0.21828,-0.897365 -0.21221,-0.400177 -0.60026,-0.618455 -0.38199,-0.224341 -0.87311,-0.224341 -0.49719,0 -0.8913,0.224341 -0.38805,0.218278 -0.60633,0.618455 -0.21828,0.394113 -0.21828,0.897365 0,0.491126 0.21828,0.879176 0.21828,0.381986 0.60633,0.600264 0.39411,0.212215 0.88523,0.212215 z m 10.74414,-5.026459 q 0.0788,-0.187961 0.27891,-0.187961 h 1.16415 q 0.24253,0 0.24253,0.242531 v 6.851506 q 0,0.242531 -0.24253,0.242531 h -1.20659 q -0.20009,0 -0.27891,-0.187961 L 167.445,89.070335 q -0.75791,0.709403 -1.90387,0.709403 -1.03683,0 -1.90994,-0.509315 -0.87311,-0.515379 -1.38243,-1.388491 -0.50931,-0.879176 -0.50931,-1.92206 0,-1.036821 0.50931,-1.90387 0.51538,-0.873112 1.3885,-1.382427 0.87311,-0.509316 1.90387,-0.509316 1.15808,0 1.92206,0.72153 z m -2.06151,5.335687 q 0.50325,0 0.91555,-0.230405 0.41837,-0.236468 0.65483,-0.648771 0.24254,-0.418366 0.24254,-0.939808 0,-0.527506 -0.23647,-0.945872 -0.23647,-0.42443 -0.64877,-0.666961 -0.41231,-0.242531 -0.91556,-0.242531 -0.50325,0 -0.91555,0.242531 -0.40624,0.236468 -0.64271,0.660898 -0.23041,0.424429 -0.23041,0.951935 0,0.527505 0.23041,0.939808 0.2304,0.412303 0.63058,0.648771 0.40624,0.230405 0.91556,0.230405 z m 5.68735,-6.311875 q -0.24253,0 -0.24253,-0.242531 v -1.424871 q 0,-0.242531 0.24253,-0.242531 h 1.60677 q 0.24253,0 0.24253,0.242531 v 1.424871 q 0,0.242531 -0.24253,0.242531 z m 1.83111,7.882264 q 0,0.242531 -0.24253,0.242531 h -1.57645 q -0.24253,0 -0.24253,-0.242531 v -6.851506 q 0,-0.242531 0.24253,-0.242531 h 1.57645 q 0.24253,0 0.24253,0.242531 z m 5.94808,-7.215303 q 0.8913,0 1.56432,0.40624 0.67303,0.40624 1.04289,1.152023 0.36986,0.73972 0.36986,1.715908 v 3.941132 q 0,0.242531 -0.24253,0.242531 h -1.57645 q -0.24254,0 -0.24254,-0.242531 v -3.710727 q 0,-0.73972 -0.36986,-1.176277 -0.36379,-0.442619 -1.0065,-0.442619 -0.45475,0 -0.84886,0.218278 -0.39411,0.212215 -0.63058,0.569948 -0.23041,0.351671 -0.23041,0.739721 v 3.801676 q 0,0.242531 -0.24253,0.242531 h -1.57645 q -0.24253,0 -0.24253,-0.242531 v -6.851506 q 0,-0.242531 0.24253,-0.242531 h 1.20659 q 0.20009,0 0.27891,0.187961 l 0.26073,0.624518 q 0.42442,-0.40624 1.04894,-0.666961 0.62452,-0.266784 1.19447,-0.266784 z"
       id="text5"
       style="font-size:11.2777px;font-family:CocogooseProTrial;-inkscape-font-specification:CocogooseProTrial;display:inline;fill:#fffcfc;stroke:#000000;stroke-width:0;stroke-linecap:round"
       transform="scale(1.0029548,0.9970539)"
       aria-label="Try again" />
    <path
       d="m 107.34324,104.70012 q -0.24129,0 -0.24129,-0.24129 v -7.99267 q 0,-0.241288 0.24129,-0.241288 h 3.26945 q 0.85054,0 1.49599,0.289546 0.64544,0.283513 0.99531,0.814347 0.3559,0.524802 0.3559,1.218506 0,0.343835 -0.12668,0.675606 -0.12667,0.331772 -0.34383,0.579092 -0.21716,0.247321 -0.47655,0.355901 0.38607,0.13271 0.68768,0.44638 0.30764,0.30764 0.47654,0.7299 0.1689,0.41622 0.1689,0.87467 0,0.74196 -0.3559,1.30899 -0.3559,0.56099 -1.01341,0.87467 -0.65148,0.30764 -1.51408,0.30764 z m 3.07642,-5.181665 q 0.38606,0 0.62132,-0.211127 0.23525,-0.217159 0.23525,-0.530834 0,-0.307642 -0.22319,-0.49464 -0.21716,-0.186999 -0.57909,-0.186999 h -1.20041 v 1.4236 z m 0.34987,3.372005 q 0.40416,0 0.64544,-0.24732 0.24129,-0.25336 0.24129,-0.66958 0,-0.22922 -0.12064,-0.42828 -0.12065,-0.2051 -0.34384,-0.32574 -0.21716,-0.12065 -0.50067,-0.12065 h -1.41757 v 1.79157 z m 9.71789,-5.30231 q 0.0784,-0.186998 0.27748,-0.186998 h 1.15818 q 0.24129,0 0.24129,0.241288 v 6.81639 q 0,0.24129 -0.24129,0.24129 h -1.20041 q -0.19906,0 -0.27748,-0.187 l -0.1508,-0.36193 q -0.75403,0.70577 -1.89412,0.70577 -1.0315,0 -1.90014,-0.50671 -0.86864,-0.51274 -1.37534,-1.38137 -0.50671,-0.87467 -0.50671,-1.91221 0,-1.03151 0.50671,-1.894115 0.51274,-0.868637 1.38137,-1.375342 0.86864,-0.506705 1.89411,-0.506705 1.15216,0 1.91221,0.717832 z m -2.05095,5.30834 q 0.50067,0 0.91086,-0.22922 0.41622,-0.23526 0.65148,-0.64545 0.24129,-0.41622 0.24129,-0.93499 0,-0.5248 -0.23526,-0.94103 -0.23525,-0.42225 -0.64544,-0.663538 -0.41019,-0.241288 -0.91087,-0.241288 -0.50067,0 -0.91086,0.241288 -0.40416,0.235256 -0.63941,0.657508 -0.22923,0.42226 -0.22923,0.94706 0,0.5248 0.22923,0.93499 0.22922,0.41019 0.62735,0.64545 0.40415,0.22922 0.91086,0.22922 z m 8.69844,1.9846 q -1.07374,0 -1.93634,-0.50671 -0.85657,-0.51274 -1.34518,-1.38137 -0.48258,-0.86864 -0.48258,-1.90015 0,-1.04357 0.48258,-1.912208 0.48257,-0.87467 1.34518,-1.387407 0.8626,-0.512737 1.9484,-0.512737 0.7118,0 1.33312,0.211127 0.62735,0.211127 1.12199,0.597188 0.10255,0.08445 0.10255,0.180966 0,0.07239 -0.0543,0.156837 l -0.76609,1.091829 q -0.0784,0.114612 -0.18097,0.114612 -0.0663,0 -0.15684,-0.06032 -0.30764,-0.211127 -0.61528,-0.319707 -0.30764,-0.108579 -0.70577,-0.108579 -0.48861,0 -0.90483,0.253352 -0.41622,0.253353 -0.66354,0.699737 -0.24732,0.44035 -0.24732,0.99531 0,0.5429 0.24732,0.98325 0.25335,0.44035 0.66957,0.6937 0.42226,0.24732 0.90483,0.24732 0.3921,0 0.69974,-0.10254 0.31367,-0.10858 0.61528,-0.31971 0.0905,-0.0603 0.15684,-0.0603 0.10255,0 0.18097,0.11461 l 0.76609,1.09183 q 0.0603,0.0845 0.0603,0.16287 0,0.0784 -0.0724,0.14477 -0.50067,0.39813 -1.13405,0.61529 -0.63338,0.21716 -1.36931,0.21716 z m 10.79763,-0.47052 q 0.0483,0.0724 0.0483,0.14478 0,0.0663 -0.0543,0.10858 -0.0543,0.0362 -0.15081,0.0362 h -1.86395 q -0.19303,0 -0.28954,-0.15684 l -1.75537,-2.68433 -0.82642,0.8988 v 1.70108 q 0,0.24129 -0.24128,0.24129 h -1.56838 q -0.24129,0 -0.24129,-0.24129 v -8.945758 q 0,-0.241288 0.24129,-0.241288 h 1.56838 q 0.24128,0 0.24128,0.241288 v 4.572408 l 2.09921,-2.545588 q 0.11461,-0.13874 0.29558,-0.13874 h 2.1173 q 0.0965,0 0.15081,0.03619 0.0603,0.03619 0.0603,0.102547 0,0.07842 -0.0784,0.156838 l -2.42494,2.642113 z m 6.23129,0.0483 q 0,0.24129 -0.24129,0.24129 h -1.56838 q -0.24128,0 -0.24128,-0.24129 v -5.157534 h -0.60322 q -0.24129,0 -0.24129,-0.241288 V 97.64244 q 0,-0.241288 0.24129,-0.241288 h 0.59115 v -1.315021 q 0,-0.223191 0.21716,-0.265417 l 1.58647,-0.307642 q 0.0241,-0.006 0.0603,-0.006 0.0965,0 0.15081,0.06032 0.0543,0.06032 0.0543,0.162869 v 1.670921 h 1.13405 q 0.24129,0 0.24129,0.241288 v 1.417568 q 0,0.241288 -0.24129,0.241288 h -1.14008 z m 5.59787,0.42226 q -1.06166,0 -1.9484,-0.50671 -0.8807,-0.50671 -1.39947,-1.37534 -0.51274,-0.86864 -0.51274,-1.90015 0,-1.0496 0.51877,-1.92427 0.51877,-0.87467 1.40551,-1.381375 0.89276,-0.512737 1.95443,-0.512737 1.0677,0 1.95444,0.512737 0.89276,0.506705 1.41153,1.381375 0.51877,0.87467 0.51877,1.92427 0,1.03151 -0.5248,1.90015 -0.51877,0.86863 -1.41757,1.37534 -0.89277,0.50671 -1.96047,0.50671 z m 0.0241,-1.96047 q 0.50068,0 0.9169,-0.24129 0.42225,-0.24129 0.66354,-0.65751 0.24732,-0.42225 0.24732,-0.93499 0,-0.51877 -0.24732,-0.94103 -0.24129,-0.42225 -0.66354,-0.663538 -0.41622,-0.241288 -0.9169,-0.241288 -0.5067,0 -0.92896,0.241288 -0.41622,0.241288 -0.66354,0.663538 -0.24129,0.42226 -0.24129,0.94103 0,0.51274 0.24129,0.93499 0.24732,0.41622 0.66354,0.65751 0.42226,0.24129 0.92896,0.24129 z m 16.70319,-5.700434 q 0.82642,0 1.43567,0.380028 0.60925,0.373997 0.94102,1.12199 0.33177,0.741962 0.33177,1.815696 v 3.92093 q 0,0.24129 -0.24129,0.24129 h -1.56837 q -0.24129,0 -0.24129,-0.24129 v -3.84855 q 0,-0.675602 -0.31367,-1.061664 -0.31368,-0.392093 -0.8988,-0.392093 -0.374,0 -0.67561,0.193031 -0.29557,0.186998 -0.47654,0.500673 -0.18097,0.313673 -0.21113,0.681643 v 3.92696 q 0,0.24129 -0.24129,0.24129 h -1.56837 q -0.24129,0 -0.24129,-0.24129 v -3.84855 q 0,-0.675602 -0.31367,-1.061664 -0.31368,-0.392093 -0.8988,-0.392093 -0.39813,0 -0.7118,0.21716 -0.30764,0.211127 -0.48258,0.560995 -0.17493,0.349872 -0.17493,0.741962 v 3.78219 q 0,0.24129 -0.24129,0.24129 h -1.56837 q -0.24129,0 -0.24129,-0.24129 v -6.81639 q 0,-0.241288 0.24129,-0.241288 h 1.20041 q 0.10254,0 0.1689,0.04826 0.0663,0.04223 0.10858,0.138741 l 0.15684,0.380029 q 0.42828,-0.361932 0.95912,-0.554963 0.53083,-0.19303 1.14008,-0.19303 0.7118,0 1.26677,0.283513 0.55496,0.283514 0.90483,0.832444 0.44638,-0.536866 1.07373,-0.826412 0.63338,-0.289545 1.38137,-0.289545 z m 7.5463,7.660904 q -1.09183,0 -1.96047,-0.51274 -0.86864,-0.51274 -1.35724,-1.38138 -0.48258,-0.86863 -0.48258,-1.89411 0,-1.03754 0.45845,-1.906176 0.46448,-0.874669 1.29089,-1.387407 0.82641,-0.518769 1.87601,-0.518769 1.13406,0 1.9665,0.488608 0.83245,0.488609 1.26677,1.351214 0.44035,0.862605 0.44035,1.96047 0,0.24128 -0.0241,0.47654 -0.0241,0.22319 -0.25336,0.22319 h -4.91624 q 0.19906,0.60322 0.68164,0.94103 0.48257,0.3378 1.09786,0.3378 0.39209,0 0.70577,-0.10858 0.3197,-0.11461 0.62131,-0.32574 0.0784,-0.0603 0.15684,-0.0603 0.0965,0 0.17493,0.10858 l 0.74197,1.05563 q 0.0543,0.0784 0.0543,0.15081 0,0.10255 -0.0965,0.18097 -0.50067,0.39209 -1.12199,0.60925 -0.61528,0.21113 -1.32105,0.21113 z m 1.47186,-4.60861 q -0.16891,-0.597187 -0.5791,-0.916894 -0.41019,-0.319707 -1.00134,-0.319707 -0.57909,0 -1.00738,0.325739 -0.42225,0.325739 -0.59719,0.910862 z m 7.44373,-2.991972 q 0.88674,0 1.55631,0.404157 0.66958,0.404158 1.03754,1.146119 0.36797,0.735929 0.36797,1.707116 v 3.92093 q 0,0.24129 -0.24129,0.24129 h -1.56837 q -0.24129,0 -0.24129,-0.24129 v -3.69171 q 0,-0.73593 -0.36797,-1.170246 -0.36193,-0.440351 -1.00134,-0.440351 -0.45242,0 -0.84451,0.21716 -0.39209,0.211127 -0.62735,0.567027 -0.22922,0.34987 -0.22922,0.73593 v 3.78219 q 0,0.24129 -0.24129,0.24129 h -1.56838 q -0.24128,0 -0.24128,-0.24129 v -6.81639 q 0,-0.241288 0.24128,-0.241288 h 1.20041 q 0.19907,0 0.27748,0.186998 l 0.25939,0.621317 q 0.42225,-0.404158 1.04357,-0.663542 0.62132,-0.265417 1.18834,-0.265417 z m 9.43436,0.361932 q 0,-0.241288 0.24129,-0.241288 h 1.56838 q 0.24128,0 0.24128,0.241288 v 6.81639 q 0,0.24129 -0.24128,0.24129 h -1.20041 q -0.19907,0 -0.27748,-0.187 l -0.25939,-0.62132 q -0.42225,0.40416 -1.04357,0.66958 -0.62132,0.25938 -1.18835,0.25938 -0.88673,0 -1.5563,-0.40415 -0.66958,-0.40416 -1.03754,-1.14009 -0.36797,-0.74196 -0.36797,-1.71315 v -3.92093 q 0,-0.241288 0.24129,-0.241288 h 1.56837 q 0.24129,0 0.24129,0.241288 v 3.69171 q 0,0.48258 0.17494,0.85054 0.18096,0.36193 0.50067,0.56099 0.32574,0.19907 0.75402,0.19907 0.45242,0 0.82642,-0.21113 0.38003,-0.21716 0.59718,-0.56703 0.21716,-0.34986 0.21716,-0.74196 z"
       id="text6"
       style="font-size:11.2199px;font-family:CocogooseProTrial;-inkscape-font-specification:CocogooseProTrial;display:inline;fill:#fffcfc;stroke:#000000;stroke-width:0;stroke-linecap:round"
       transform="scale(1.0088464,0.99123117)"
       aria-label="Back to menu" />
  </g>
</svg>
