<?xml version="1.0" encoding="UTF-8" standalone="no"?>
<!-- Created with Inkscape (http://www.inkscape.org/) -->

<svg
   width="1152"
   height="648"
   viewBox="0 0 304.8 171.45"
   version="1.1"
   id="svg1"
   inkscape:version="1.3.2 (091e20e, 2023-11-25, custom)"
   sodipodi:docname="main_menu.svg"
   inkscape:export-filename="background.png"
   inkscape:export-xdpi="96"
   inkscape:export-ydpi="96"
   xmlns:inkscape="http://www.inkscape.org/namespaces/inkscape"
   xmlns:sodipodi="http://sodipodi.sourceforge.net/DTD/sodipodi-0.dtd"
   xmlns="http://www.w3.org/2000/svg"
   xmlns:svg="http://www.w3.org/2000/svg">
  <sodipodi:namedview
     id="namedview1"
     pagecolor="#ffffff"
     bordercolor="#000000"
     borderopacity="0.25"
     inkscape:showpageshadow="2"
     inkscape:pageopacity="0.0"
     inkscape:pagecheckerboard="0"
     inkscape:deskcolor="#d1d1d1"
     inkscape:document-units="px"
     inkscape:zoom="0.69219277"
     inkscape:cx="633.49405"
     inkscape:cy="254.98677"
     inkscape:window-width="1920"
     inkscape:window-height="991"
     inkscape:window-x="-9"
     inkscape:window-y="-9"
     inkscape:window-maximized="1"
     inkscape:current-layer="layer1" />
  <defs
     id="defs1" />
  <g
     inkscape:label="Layer 1"
     inkscape:groupmode="layer"
     id="layer1">
    <rect
       style="fill:#4d4d4d;fill-opacity:1;fill-rule:nonzero;stroke:#000000;stroke-width:0;stroke-linecap:round;stroke-dasharray:none"
       id="rect7"
       width="304.79999"
       height="171.45"
       x="0"
       y="-2.8421709e-14" />
    <path
       d="m 39.395101,78.111158 q -2.172548,0 -4.102202,-0.836633 -1.91616,-0.836634 -3.346534,-2.44243 -0.161929,-0.188917 -0.161929,-0.36434 0,-0.202411 0.202412,-0.404823 l 2.388453,-2.267006 q 0.175423,-0.175423 0.36434,-0.175423 0.215906,0 0.391329,0.202411 0.863621,0.89061 1.929654,1.349409 1.066033,0.445304 2.21303,0.445304 1.146998,0 1.713749,-0.391328 0.566752,-0.391329 0.566752,-1.066033 0,-0.458799 -0.256388,-0.796151 -0.242893,-0.337352 -0.95808,-0.674704 -0.701692,-0.337353 -2.064595,-0.742175 -2.253512,-0.66121 -4.021238,-2.105078 -1.754231,-1.457361 -1.754231,-3.926779 0,-1.470855 0.742175,-2.712311 0.742175,-1.241456 2.267006,-1.983631 1.524832,-0.755669 3.751356,-0.755669 1.875678,0 3.589427,0.674705 1.713749,0.674704 3.049664,1.821701 0.202411,0.175423 0.202411,0.391329 0,0.188917 -0.161929,0.377834 l -2.186042,2.455924 q -0.175423,0.215905 -0.391328,0.215905 -0.175423,0 -0.364341,-0.148435 -0.755669,-0.593739 -1.713749,-0.998562 -0.95808,-0.418317 -1.889172,-0.418317 -1.902666,0 -1.902666,1.120009 0,0.472293 0.310364,0.796152 0.310364,0.323858 0.823139,0.553257 0.52627,0.2294 1.605797,0.607234 0.148435,0.04048 0.445304,0.148435 1.916161,0.674704 3.171111,1.443867 1.25495,0.769163 1.943148,1.889172 0.688199,1.106515 0.688199,2.671829 0,1.808208 -0.877116,3.184605 -0.877116,1.362903 -2.482912,2.118571 -1.605796,0.742175 -3.724368,0.742175 z M 58.597177,61.189574 q 1.983631,0 3.481474,0.904103 1.497844,0.904104 2.320983,2.563877 0.823139,1.646278 0.823139,3.818826 v 8.771157 q 0,0.539763 -0.539763,0.539763 h -3.508463 q -0.539763,0 -0.539763,-0.539763 v -8.258381 q 0,-1.079527 -0.404823,-1.889172 -0.391328,-0.82314 -1.120009,-1.268445 -0.715186,-0.445304 -1.673267,-0.445304 -1.012056,0 -1.862183,0.485787 -0.836634,0.472293 -1.322421,1.25495 -0.485787,0.782657 -0.485787,1.659772 v 8.460793 q 0,0.539763 -0.539764,0.539763 h -3.46798 q -0.539763,0 -0.539763,-0.539763 V 57.235806 q 0,-0.539763 0.539763,-0.539763 h 3.46798 q 0.539764,0 0.539764,0.539763 v 5.883422 q 0.944586,-0.850127 2.280501,-1.389891 1.335914,-0.539763 2.550382,-0.539763 z m 17.582811,17.002549 q -2.37496,0 -4.35859,-1.133504 -1.970137,-1.133503 -3.130628,-3.076651 -1.146998,-1.943149 -1.146998,-4.250638 0,-2.347971 1.160492,-4.304613 1.160491,-1.956643 3.144122,-3.090146 1.997125,-1.146997 4.372084,-1.146997 2.388453,0 4.372084,1.146997 1.997125,1.133503 3.157616,3.090146 1.160492,1.956642 1.160492,4.304613 0,2.307489 -1.173986,4.250638 -1.160491,1.943148 -3.17111,3.076651 -1.997125,1.133504 -4.385578,1.133504 z m 0.05398,-4.385578 q 1.120009,0 2.051101,-0.539764 0.944586,-0.539763 1.48435,-1.470855 0.553257,-0.944586 0.553257,-2.091584 0,-1.160491 -0.553257,-2.105077 -0.539764,-0.944586 -1.48435,-1.48435 -0.931092,-0.539763 -2.051101,-0.539763 -1.133503,0 -2.078089,0.539763 -0.931092,0.539764 -1.48435,1.48435 -0.539763,0.944586 -0.539763,2.105077 0,1.146998 0.539763,2.091584 0.553258,0.931092 1.48435,1.470855 0.944586,0.539764 2.078089,0.539764 z m 18.93223,4.385578 q -2.37496,0 -4.35859,-1.133504 -1.970137,-1.133503 -3.130628,-3.076651 -1.146998,-1.943149 -1.146998,-4.250638 0,-2.347971 1.160492,-4.304613 1.160491,-1.956643 3.144122,-3.090146 1.997125,-1.146997 4.372084,-1.146997 2.388453,0 4.372084,1.146997 1.997116,1.133503 3.157616,3.090146 1.16049,1.956642 1.16049,4.304613 0,2.307489 -1.17399,4.250638 -1.16049,1.943148 -3.171104,3.076651 -1.997125,1.133504 -4.385578,1.133504 z m 0.05398,-4.385578 q 1.120009,0 2.051101,-0.539764 0.944586,-0.539763 1.48435,-1.470855 0.553257,-0.944586 0.553257,-2.091584 0,-1.160491 -0.553257,-2.105077 -0.539764,-0.944586 -1.48435,-1.48435 -0.931092,-0.539763 -2.051101,-0.539763 -1.133503,0 -2.078089,0.539763 -0.931092,0.539764 -1.48435,1.48435 -0.539763,0.944586 -0.539763,2.105077 0,1.146998 0.539763,2.091584 0.553258,0.931092 1.48435,1.470855 0.944586,0.539764 2.078089,0.539764 z m 16.098472,3.440992 q 0,0.539763 -0.53976,0.539763 h -3.50846 q -0.53977,0 -0.53977,-0.539763 V 65.710093 h -1.34941 q -0.53976,0 -0.53976,-0.539764 v -3.17111 q 0,-0.539764 0.53976,-0.539764 h 1.32242 v -2.94171 q 0,-0.499282 0.48579,-0.59374 l 3.54895,-0.688199 q 0.054,-0.01349 0.13494,-0.01349 0.2159,0 0.33735,0.134941 0.12145,0.134941 0.12145,0.36434 v 3.737862 h 2.53688 q 0.53977,0 0.53977,0.539764 v 3.17111 q 0,0.539764 -0.53977,0.539764 h -2.55038 z m 12.38755,0.944586 q -2.44243,0 -4.38558,-1.146998 -1.94315,-1.146997 -3.03617,-3.090145 -1.07953,-1.943149 -1.07953,-4.237144 0,-2.320983 1.02555,-4.264131 1.03905,-1.956643 2.88774,-3.10364 1.84869,-1.160491 4.19666,-1.160491 2.53689,0 4.39907,1.093021 1.86218,1.093021 2.83376,3.022675 0.98507,1.929654 0.98507,4.385578 0,0.539764 -0.054,1.066033 -0.054,0.499281 -0.56675,0.499281 h -10.99768 q 0.4453,1.349409 1.52483,2.105078 1.07953,0.755669 2.45592,0.755669 0.87712,0 1.57881,-0.242894 0.71519,-0.256388 1.38989,-0.728681 0.17543,-0.134941 0.35085,-0.134941 0.21591,0 0.39133,0.242894 l 1.65977,2.361465 q 0.12145,0.175423 0.12145,0.337352 0,0.2294 -0.21591,0.404823 -1.12001,0.877116 -2.5099,1.362903 -1.37639,0.472293 -2.9552,0.472293 z m 3.29255,-10.309482 q -0.37783,-1.335915 -1.29543,-2.051102 -0.9176,-0.715186 -2.24002,-0.715186 -1.29543,0 -2.25351,0.728681 -0.94458,0.72868 -1.33591,2.037607 z m 15.85556,-6.693067 q 1.65977,0 3.27906,0.95808 0.28338,0.175423 0.28338,0.431811 0,0.148435 -0.081,0.310364 l -1.55182,2.914722 q -0.16193,0.29687 -0.41832,0.29687 -0.16192,0 -0.31036,-0.09446 -0.97157,-0.539764 -1.86218,-0.539764 -0.85013,0 -1.63279,0.485787 -0.76916,0.485787 -1.25495,1.443867 -0.48579,0.944587 -0.48579,2.280501 v 7.570183 q 0,0.539763 -0.53976,0.539763 h -3.50846 q -0.53976,0 -0.53976,-0.539763 V 61.999219 q 0,-0.539764 0.53976,-0.539764 h 2.68532 q 0.44531,0 0.62073,0.418317 l 0.66121,1.578808 q 0.63422,-1.052539 1.70026,-1.659772 1.06603,-0.607234 2.41544,-0.607234 z"
       id="text1"
       style="font-size:25.099px;font-family:CocogooseProTrial;-inkscape-font-specification:CocogooseProTrial;display:inline;stroke:#000000;stroke-width:0;stroke-linecap:round;fill:#ffffff;fill-opacity:1"
       transform="scale(1.0155652,0.98467337)"
       aria-label="Shooter" />
    <path
       d="m 77.780565,103.21966 q 0,0.24249 -0.242495,0.24249 h -1.697462 q -0.242495,0 -0.242495,-0.24249 v -8.032638 q 0,-0.242495 0.242495,-0.242495 h 3.27974 q 0.921479,0 1.612589,0.369804 0.697172,0.369805 1.073039,1.02454 0.381929,0.648673 0.381929,1.467092 0,0.885106 -0.363742,1.558028 -0.363742,0.672919 -1.054852,1.048789 -0.685047,0.3698 -1.624714,0.3698 h -1.364032 z m 1.188223,-4.407344 q 0.290994,0 0.527426,-0.12731 0.236433,-0.127309 0.369805,-0.351617 0.139434,-0.23037 0.139434,-0.509238 0,-0.266745 -0.139434,-0.472865 -0.133372,-0.20612 -0.369805,-0.321305 -0.23037,-0.115185 -0.521363,-0.115185 h -1.194286 v 1.89752 z m 6.389729,4.407344 q 0,0.24249 -0.242494,0.24249 h -1.558028 q -0.242495,0 -0.242495,-0.24249 v -8.990492 q 0,-0.242495 0.242495,-0.242495 h 1.558028 q 0.242494,0 0.242494,0.242495 z m 7.111154,-6.905038 q 0.07881,-0.187934 0.278869,-0.187934 h 1.163974 q 0.242495,0 0.242495,0.242495 v 6.850477 q 0,0.24249 -0.242495,0.24249 h -1.20641 q -0.200058,0 -0.278869,-0.18793 l -0.151559,-0.36374 q -0.757796,0.70929 -1.903583,0.70929 -1.036665,0 -1.909645,-0.50924 -0.872981,-0.5153 -1.38222,-1.38828 -0.509238,-0.87904 -0.509238,-1.921768 0,-1.036665 0.509238,-1.903583 0.515301,-0.872981 1.388282,-1.382219 0.872981,-0.509239 1.903583,-0.509239 1.157912,0 1.92177,0.721421 z m -2.061204,5.334878 q 0.503176,0 0.915417,-0.23037 0.418304,-0.23643 0.654736,-0.64867 0.242494,-0.4183 0.242494,-0.939666 0,-0.527426 -0.236432,-0.945729 -0.236432,-0.424366 -0.648673,-0.666861 -0.412241,-0.242494 -0.915417,-0.242494 -0.503177,0 -0.915417,0.242494 -0.406179,0.236433 -0.642611,0.660798 -0.23037,0.424366 -0.23037,0.951792 0,0.527426 0.23037,0.939666 0.23037,0.41224 0.630486,0.64867 0.406178,0.23037 0.915417,0.23037 z m 8.796493,3.77079 q -0.07275,0.194 -0.278869,0.194 H 97.25894 q -0.10306,0 -0.157621,-0.0424 -0.05456,-0.0424 -0.05456,-0.12124 0,-0.0606 0.02425,-0.11519 l 0.763858,-1.90358 -2.679566,-7.026283 q -0.01819,-0.05456 -0.01819,-0.10306 0,-0.08487 0.05456,-0.12731 0.05456,-0.0485 0.151559,-0.0485 h 1.770211 q 0.218245,0 0.278868,0.200058 l 1.473155,4.504335 1.485286,-4.504335 q 0.0606,-0.200058 0.27887,-0.200058 h 1.77627 q 0.097,0 0.15156,0.0485 0.0606,0.04244 0.0606,0.12731 0,0.0485 -0.0182,0.10306 z"
       id="text2"
       style="font-size:11.276px;font-family:CocogooseProTrial;-inkscape-font-specification:CocogooseProTrial;display:inline;stroke:#000000;stroke-width:0;stroke-linecap:round;fill:#ffffff;fill-opacity:1"
       transform="scale(0.99879725,1.0012042)"
       aria-label="Play" />
    <path
       d="m 83.837808,131.9935 q 0,0.24277 -0.242772,0.24277 h -5.802252 q -0.242772,0 -0.242772,-0.24277 v -8.04183 q 0,-0.24277 0.242772,-0.24277 h 5.711212 q 0.242773,0 0.242773,0.24277 v 1.48698 q 0,0.24277 -0.242773,0.24277 H 79.73496 v 1.32918 h 2.895057 q 0.242772,0 0.242772,0.24277 v 1.36559 q 0,0.24278 -0.242772,0.24278 H 79.73496 v 1.402 h 3.860076 q 0.242772,0 0.242772,0.24278 z m 3.065006,0.0789 q -0.09711,0.16387 -0.291326,0.16387 h -1.923969 q -0.09711,0 -0.157802,-0.0425 -0.05462,-0.0425 -0.05462,-0.10925 0,-0.0668 0.05462,-0.14566 l 2.379166,-3.45343 -2.227433,-3.3017 q -0.05462,-0.085 -0.05462,-0.14566 0,-0.0668 0.05462,-0.10318 0.06069,-0.0425 0.157802,-0.0425 h 1.942176 q 0.200287,0 0.291327,0.16994 l 1.092474,1.96039 1.086405,-1.96039 q 0.04855,-0.091 0.115317,-0.12745 0.06676,-0.0425 0.16994,-0.0425 h 1.954315 q 0.09711,0 0.151732,0.0425 0.05462,0.0364 0.05462,0.10318 0,0.0728 -0.04855,0.14566 l -2.166741,3.3017 2.318473,3.4595 q 0.04855,0.0728 0.04855,0.13959 0,0.0668 -0.05462,0.10925 -0.05462,0.0425 -0.151733,0.0425 H 89.7129 q -0.194218,0 -0.291327,-0.16387 l -1.268484,-2.15461 z m 6.251386,-7.969 q -0.242772,0 -0.242772,-0.24277 v -1.42628 q 0,-0.24278 0.242772,-0.24278 h 1.608365 q 0.242772,0 0.242772,0.24278 v 1.42628 q 0,0.24277 -0.242772,0.24277 z m 1.832929,7.8901 q 0,0.24277 -0.242772,0.24277 h -1.578019 q -0.242772,0 -0.242772,-0.24277 v -6.85832 q 0,-0.24277 0.242772,-0.24277 h 1.578019 q 0.242772,0 0.242772,0.24277 z m 3.841866,0 q 0,0.24277 -0.242772,0.24277 h -1.578018 q -0.242772,0 -0.242772,-0.24277 v -5.18926 h -0.60693 q -0.242772,0 -0.242772,-0.24277 v -1.42629 q 0,-0.24277 0.242772,-0.24277 h 0.594791 v -1.32311 q 0,-0.22456 0.218495,-0.26704 l 1.596226,-0.30954 q 0.02428,-0.006 0.06069,-0.006 0.09711,0 0.151733,0.0607 0.05462,0.0607 0.05462,0.16388 v 1.68119 h 1.141028 q 0.242774,0 0.242774,0.24277 v 1.42629 q 0,0.24277 -0.242774,0.24277 h -1.147098 z"
       id="text3"
       style="font-size:11.2889px;font-family:CocogooseProTrial;-inkscape-font-specification:CocogooseProTrial;display:inline;stroke:#000000;stroke-width:0;stroke-linecap:round;fill:#ffffff;fill-opacity:1"
       aria-label="Exit&#10;" />
    <path
       d="m 68.588187,118.06295 q -1.232068,0 -2.251711,-0.59479 -1.013573,-0.59479 -1.602295,-1.60837 -0.582653,-1.01357 -0.582653,-2.22743 0,-1.21386 0.582653,-2.22743 0.588722,-1.01358 1.602295,-1.59623 1.013574,-0.58872 2.251711,-0.58872 1.232068,0 2.245642,0.58872 1.013573,0.58872 1.596226,1.6023 0.588722,1.0075 0.588722,2.22136 0,1.20779 -0.588722,2.22743 -0.582653,1.01358 -1.602296,1.60837 -1.013573,0.59479 -2.239572,0.59479 z m 0,-2.09391 q 0.588722,0 1.098544,-0.30346 0.509821,-0.30954 0.813286,-0.84364 0.303465,-0.54017 0.303465,-1.18351 0,-0.64335 -0.309534,-1.17745 -0.303465,-0.53409 -0.813287,-0.83756 -0.509821,-0.30953 -1.092474,-0.30953 -0.588722,0 -1.098543,0.30953 -0.509822,0.30347 -0.819356,0.83756 -0.303465,0.5341 -0.303465,1.17745 0,0.64334 0.303465,1.17744 0.309534,0.5341 0.819356,0.84364 0.51589,0.30953 1.098543,0.30953 z m 9.492381,-5.52306 q 1.031781,0 1.90576,0.50982 0.87398,0.50982 1.383801,1.3838 0.515891,0.86791 0.515891,1.90576 0,1.04392 -0.509822,1.92397 -0.509821,0.87398 -1.3838,1.38987 -0.87398,0.50982 -1.91183,0.50982 -1.013574,0 -1.723682,-0.55231 v 2.30634 q 0,0.24277 -0.242772,0.24277 h -1.578018 q -0.242772,0 -0.242772,-0.24277 v -9.01292 q 0,-0.24277 0.242772,-0.24277 h 1.165306 q 0.200287,0 0.279188,0.18815 l 0.176009,0.41271 q 0.764732,-0.72224 1.923969,-0.72224 z m -0.03642,5.65052 q 0.509821,0 0.910395,-0.23064 0.406643,-0.2367 0.637277,-0.64941 0.230633,-0.41272 0.230633,-0.94074 0,-0.52803 -0.236702,-0.95289 -0.230634,-0.42485 -0.643346,-0.66155 -0.406644,-0.24277 -0.910396,-0.24277 -0.503752,0 -0.916464,0.24277 -0.412713,0.24277 -0.649415,0.66762 -0.236703,0.41879 -0.236703,0.94682 0,0.52196 0.236703,0.94074 0.242772,0.41271 0.655484,0.64941 0.418782,0.23064 0.922534,0.23064 z m 7.179983,1.57194 q 0,0.24278 -0.242772,0.24278 h -1.578018 q -0.242772,0 -0.242772,-0.24278 v -5.18925 h -0.606931 q -0.242772,0 -0.242772,-0.24277 v -1.42629 q 0,-0.24277 0.242772,-0.24277 h 0.594792 v -1.32311 q 0,-0.22456 0.218495,-0.26704 l 1.596226,-0.30954 q 0.02428,-0.006 0.06069,-0.006 0.09711,0 0.151733,0.0607 0.05462,0.0607 0.05462,0.16388 v 1.68119 h 1.141029 q 0.242772,0 0.242772,0.24277 v 1.42629 q 0,0.24277 -0.242772,0.24277 h -1.147098 z m 2.482338,-7.89009 q -0.242772,0 -0.242772,-0.24277 v -1.42628 q 0,-0.24278 0.242772,-0.24278 h 1.608364 q 0.242773,0 0.242773,0.24278 v 1.42628 q 0,0.24277 -0.242773,0.24277 z m 1.832929,7.89009 q 0,0.24278 -0.242772,0.24278 h -1.578019 q -0.242772,0 -0.242772,-0.24278 v -6.85831 q 0,-0.24277 0.242772,-0.24277 h 1.578019 q 0.242772,0 0.242772,0.24277 z m 5.116419,0.42486 q -1.068197,0 -1.960384,-0.50983 -0.886118,-0.50982 -1.408078,-1.3838 -0.51589,-0.87398 -0.51589,-1.91183 0,-1.05605 0.521959,-1.9361 0.52196,-0.88005 1.414148,-1.38987 0.898256,-0.51589 1.966453,-0.51589 1.074267,0 1.966454,0.51589 0.898256,0.50982 1.420216,1.38987 0.52196,0.88005 0.52196,1.9361 0,1.03785 -0.528029,1.91183 -0.52196,0.87398 -1.426286,1.3838 -0.898256,0.50983 -1.972523,0.50983 z m 0.02428,-1.97253 q 0.503752,0 0.922533,-0.24277 0.424851,-0.24277 0.667624,-0.66155 0.248841,-0.42485 0.248841,-0.94074 0,-0.52196 -0.248841,-0.94682 -0.242773,-0.42485 -0.667624,-0.66762 -0.418781,-0.24277 -0.922533,-0.24277 -0.509822,0 -0.934673,0.24277 -0.418782,0.24277 -0.667623,0.66762 -0.242772,0.42486 -0.242772,0.94682 0,0.51589 0.242772,0.94074 0.248841,0.41878 0.667623,0.66155 0.424851,0.24277 0.934673,0.24277 z m 9.352803,-5.67479 q 0.89219,0 1.56588,0.40664 0.67369,0.40664 1.04392,1.15317 0.37023,0.74045 0.37023,1.71761 v 3.94504 q 0,0.24278 -0.24277,0.24278 h -1.57802 q -0.24277,0 -0.24277,-0.24278 v -3.71441 q 0,-0.74045 -0.37023,-1.17744 -0.36416,-0.44306 -1.00751,-0.44306 -0.45519,0 -0.8497,0.21849 -0.3945,0.21243 -0.63121,0.57052 -0.23063,0.35202 -0.23063,0.74045 v 3.80545 q 0,0.24278 -0.24277,0.24278 h -1.57802 q -0.242773,0 -0.242773,-0.24278 v -6.85831 q 0,-0.24277 0.242773,-0.24277 h 1.20779 q 0.20029,0 0.27919,0.18815 l 0.26098,0.62514 q 0.42485,-0.40664 1.04999,-0.66762 0.62514,-0.26705 1.19565,-0.26705 z m 7.03432,7.64732 q -0.86185,0 -1.59016,-0.28526 -0.72225,-0.29133 -1.35346,-0.8497 -0.0971,-0.0789 -0.0971,-0.17601 0,-0.0789 0.0668,-0.16387 l 0.81935,-1.02572 q 0.085,-0.10317 0.17601,-0.10317 0.0668,0 0.16387,0.0668 0.44306,0.33381 0.87398,0.51589 0.43699,0.18208 0.88005,0.18208 0.30347,0 0.48555,-0.11532 0.18208,-0.12139 0.18208,-0.33988 0,-0.14566 -0.10925,-0.26705 -0.10318,-0.12139 -0.36416,-0.24277 -0.26098,-0.12746 -0.74045,-0.29133 -0.91647,-0.30953 -1.51126,-0.84363 -0.59479,-0.5341 -0.59479,-1.46877 0,-0.59479 0.29132,-1.10461 0.2974,-0.50983 0.89826,-0.81936 0.60693,-0.3156 1.48698,-0.3156 0.60693,0 1.24421,0.24277 0.64334,0.2367 1.13496,0.71011 0.085,0.085 0.085,0.16994 0,0.0728 -0.085,0.16994 l -0.95895,0.98929 q -0.0789,0.085 -0.16994,0.085 -0.0789,0 -0.16994,-0.0728 -0.24885,-0.20028 -0.55231,-0.32774 -0.2974,-0.13352 -0.59479,-0.13352 -0.30954,0 -0.47341,0.11531 -0.1578,0.11532 -0.1578,0.31561 0,0.13959 0.11532,0.25491 0.12138,0.10924 0.38236,0.22456 0.26098,0.10925 0.72832,0.26098 1.00143,0.32167 1.54767,0.86184 0.54624,0.54017 0.54624,1.4627 0,0.60086 -0.30954,1.13496 -0.30346,0.52803 -0.89218,0.85577 -0.58266,0.32775 -1.3838,0.32775 z"
       id="text5"
       style="font-size:11.2889px;font-family:CocogooseProTrial;-inkscape-font-specification:CocogooseProTrial;display:inline;stroke:#000000;stroke-width:0;stroke-linecap:round;fill:#ffffff;fill-opacity:1"
       aria-label="Options" />
    <text
       xml:space="preserve"
       style="font-style:normal;font-variant:normal;font-weight:normal;font-stretch:normal;font-size:25.099px;font-family:CocogooseProTrial;-inkscape-font-specification:CocogooseProTrial;display:none;fill:#ffffff;fill-opacity:1;stroke:#000000;stroke-width:0;stroke-linecap:round;stroke-dasharray:none"
       x="31.123226"
       y="77.7873"
       id="text1-0"
       transform="scale(1.0155652,0.98467337)"><tspan
         sodipodi:role="line"
         id="tspan1-3"
         style="fill:#ffffff;fill-opacity:1;stroke-width:0"
         x="31.123226"
         y="77.7873">Shooter</tspan></text>
    <text
       xml:space="preserve"
       style="font-style:normal;font-variant:normal;font-weight:normal;font-stretch:normal;font-size:11.276px;font-family:CocogooseProTrial;-inkscape-font-specification:CocogooseProTrial;display:none;fill:#ffffff;fill-opacity:1;stroke:#000000;stroke-width:0;stroke-linecap:round;stroke-dasharray:none"
       x="74.749382"
       y="103.46215"
       id="text2-2"
       transform="scale(0.99879725,1.0012042)"><tspan
         sodipodi:role="line"
         id="tspan2-0"
         style="fill:#ffffff;fill-opacity:1;stroke-width:0"
         x="74.749382"
         y="103.46215">Play</tspan></text>
    <text
       xml:space="preserve"
       style="font-style:normal;font-variant:normal;font-weight:normal;font-stretch:normal;font-size:11.2889px;font-family:CocogooseProTrial;-inkscape-font-specification:CocogooseProTrial;display:none;fill:#ffffff;fill-opacity:1;stroke:#000000;stroke-width:0;stroke-linecap:round;stroke-dasharray:none"
       x="76.700317"
       y="132.23627"
       id="text3-7"><tspan
         sodipodi:role="line"
         id="tspan3-3"
         style="fill:#ffffff;fill-opacity:1;stroke-width:0"
         x="76.700317"
         y="132.23627">Exit</tspan><tspan
         sodipodi:role="line"
         style="fill:#ffffff;fill-opacity:1;stroke-width:0"
         x="76.700317"
         y="146.3474"
         id="tspan4-2" /></text>
    <text
       xml:space="preserve"
       style="font-style:normal;font-variant:normal;font-weight:normal;font-stretch:normal;font-size:11.2889px;font-family:CocogooseProTrial;-inkscape-font-specification:CocogooseProTrial;display:none;fill:#ffffff;fill-opacity:1;stroke:#000000;stroke-width:0;stroke-linecap:round;stroke-dasharray:none"
       x="63.726681"
       y="117.91122"
       id="text5-0"><tspan
         sodipodi:role="line"
         style="fill:#ffffff;fill-opacity:1;stroke-width:0"
         x="63.726681"
         y="117.91122"
         id="tspan6-4">Options</tspan></text>
    <path
       d="m 221.86679,84.983355 4.21411,4.11172 7.35539,-7.538565 c 1.23637,-1.267147 1.29526,-3.214794 0.13156,-4.35021 -1.16369,-1.135417 -3.10931,-1.028653 -4.34567,0.23849 z"
       style="fill:#ffd500;stroke:#000000;stroke-width:1.96256;stroke-linecap:round;stroke-dasharray:none"
       id="path1" />
    <path
       d="m 257.34398,47.904869 4.21411,4.11172 7.3554,-7.538564 c 1.23635,-1.267151 1.29526,-3.214794 0.13154,-4.350214 -1.16369,-1.135418 -3.10931,-1.028655 -4.34566,0.238493 z"
       style="fill:#ffd500;stroke:#000000;stroke-width:1.96256;stroke-linecap:round;stroke-dasharray:none"
       id="path1-0" />
    <g
       id="g7"
       transform="matrix(3.5822807,1.3355406,-1.3355406,3.5822807,-625.37836,-610.18106)">
      <circle
         style="display:inline;fill:#f8c574;stroke:#000000;stroke-width:0.529167;stroke-dasharray:none"
         id="path1-9"
         cy="286.63324"
         cx="5.8959146"
         r="6.0854168"
         transform="rotate(-67.064099)" />
      <path
         d="m 260.55661,105.25325 a 5.8208332,5.8208332 0 0 1 6.95076,-1.90575 5.8208332,5.8208332 0 0 1 3.45075,6.34425 5.8208332,5.8208332 0 0 0 0.67259,-1.15188 5.8208332,5.8208332 0 0 0 -3.09226,-7.62903 5.8208332,5.8208332 0 0 0 -7.62903,3.09226 5.8208332,5.8208332 0 0 0 -0.35281,1.25015 z"
         style="display:inline;fill:#ff6a00;fill-opacity:1;stroke:#000000;stroke-width:0"
         id="path13" />
      <rect
         style="display:inline;fill:#694813;fill-opacity:1;stroke:#000000;stroke-width:0.529167;stroke-linecap:round;stroke-linejoin:round;stroke-dasharray:none"
         id="rect1-8"
         width="5.2916665"
         height="1.8520833"
         x="13.039683"
         y="285.70718"
         rx="0.035514545"
         ry="2.3185212e-15"
         transform="rotate(-67.064099)" />
      <ellipse
         style="display:inline;fill:#f8c574;stroke:#000000;stroke-width:0.529167;stroke-linecap:square;stroke-linejoin:miter;stroke-miterlimit:4;stroke-dasharray:none;paint-order:normal"
         id="path2-8-6"
         cx="12.312053"
         cy="287.16241"
         rx="1.8520833"
         ry="1.8520836"
         transform="rotate(-67.064099)" />
      <path
         d="m 270.80709,91.815442 -0.11734,2.823312 0.85283,0.360879 1.94483,-2.049997 -0.85284,-0.360883 -0.0609,-0.02576 -0.85284,-0.360882 -0.0609,-0.02576 z"
         style="display:inline;fill:#ff6a00;fill-opacity:1;stroke:#000000;stroke-width:0.529167;stroke-linecap:round;stroke-linejoin:round;stroke-dasharray:none"
         id="path10" />
    </g>
    <circle
       style="fill:#c30000;fill-opacity:1;stroke:#000000;stroke-width:2.05813;stroke-dasharray:none"
       id="path1-4"
       cy="-240.41306"
       cx="-168.79791"
       r="23.668423"
       transform="rotate(126.86192)" />
    <circle
       style="fill:#ffe92f;fill-opacity:1;stroke:#000000;stroke-width:2.35359;stroke-dasharray:none"
       id="path1-1"
       cy="83.0802"
       cx="-155.13733"
       r="17.651878"
       transform="rotate(-69.202973)" />
    <ellipse
       style="display:inline;fill:#ffe92f;fill-opacity:1;stroke:#000000;stroke-width:2.35359;stroke-linecap:square;stroke-linejoin:miter;stroke-miterlimit:4;stroke-dasharray:none;paint-order:normal"
       id="path2-3"
       cx="-138.25296"
       cy="70.800644"
       rx="5.3723102"
       ry="5.3723116"
       transform="rotate(-69.202973)" />
    <ellipse
       style="display:inline;fill:#ffe92f;fill-opacity:1;stroke:#000000;stroke-width:2.35359;stroke-linecap:square;stroke-linejoin:miter;stroke-miterlimit:4;stroke-dasharray:none;paint-order:normal"
       id="path2-7-8"
       cx="-138.25296"
       cy="95.359772"
       rx="5.3723102"
       ry="5.3723116"
       transform="rotate(-69.202973)" />
    <ellipse
       style="display:inline;fill:#c30000;fill-opacity:1;stroke:#000000;stroke-width:2.05813;stroke-linecap:square;stroke-linejoin:miter;stroke-miterlimit:4;stroke-dasharray:none;paint-order:normal"
       id="path2"
       cx="-146.15855"
       cy="-256.87802"
       rx="7.2034326"
       ry="7.2034335"
       transform="rotate(126.86192)" />
    <ellipse
       style="display:inline;fill:#c30000;fill-opacity:1;stroke:#000000;stroke-width:2.05813;stroke-linecap:square;stroke-linejoin:miter;stroke-miterlimit:4;stroke-dasharray:none;paint-order:normal"
       id="path2-7"
       cx="-146.15855"
       cy="-223.94804"
       rx="7.2034326"
       ry="7.2034335"
       transform="rotate(126.86192)" />
    <circle
       style="fill:#003db3;fill-opacity:1;stroke:#000000;stroke-width:2.19091;stroke-dasharray:none"
       id="path1-3"
       cy="-116.64172"
       cx="23.466534"
       r="28.481865"
       transform="rotate(75.737019)" />
    <ellipse
       style="display:inline;fill:#003db3;fill-opacity:1;stroke:#000000;stroke-width:2.19091;stroke-linecap:square;stroke-linejoin:miter;stroke-miterlimit:4;stroke-dasharray:none;paint-order:normal"
       id="path2-6"
       cx="50.710079"
       cy="-136.4552"
       rx="8.6683931"
       ry="8.6683941"
       transform="rotate(75.737019)" />
    <ellipse
       style="display:inline;fill:#003db3;fill-opacity:1;stroke:#000000;stroke-width:2.19091;stroke-linecap:square;stroke-linejoin:miter;stroke-miterlimit:4;stroke-dasharray:none;paint-order:normal"
       id="path2-7-2"
       cx="50.710079"
       cy="-96.828247"
       rx="8.6683931"
       ry="8.6683941"
       transform="rotate(75.737019)" />
  </g>
</svg>
