<?xml version="1.0" encoding="UTF-8" standalone="no"?>
<!-- Created with Inkscape (http://www.inkscape.org/) -->

<svg
   width="128"
   height="128"
   viewBox="0 0 33.866667 33.866666"
   version="1.1"
   id="svg1"
   inkscape:version="1.3.2 (091e20e, 2023-11-25, custom)"
   sodipodi:docname="player_sniper.svg"
   inkscape:export-filename="player_pistol.svg"
   inkscape:export-xdpi="96"
   inkscape:export-ydpi="96"
   xmlns:inkscape="http://www.inkscape.org/namespaces/inkscape"
   xmlns:sodipodi="http://sodipodi.sourceforge.net/DTD/sodipodi-0.dtd"
   xmlns="http://www.w3.org/2000/svg"
   xmlns:svg="http://www.w3.org/2000/svg">
  <sodipodi:namedview
     id="namedview1"
     pagecolor="#ffffff"
     bordercolor="#000000"
     borderopacity="0.25"
     inkscape:showpageshadow="2"
     inkscape:pageopacity="0.0"
     inkscape:pagecheckerboard="0"
     inkscape:deskcolor="#d1d1d1"
     inkscape:document-units="px"
     inkscape:zoom="6.9375"
     inkscape:cx="38.126126"
     inkscape:cy="63.495495"
     inkscape:window-width="1920"
     inkscape:window-height="991"
     inkscape:window-x="-9"
     inkscape:window-y="-9"
     inkscape:window-maximized="1"
     inkscape:current-layer="g3" />
  <defs
     id="defs1" />
  <g
     inkscape:label="Base"
     inkscape:groupmode="layer"
     id="layer1"
     style="display:inline">
    <circle
       style="fill:#f8c574;stroke:#000000;stroke-width:0.529167;stroke-dasharray:none"
       id="path1"
       cy="8.4666672"
       cx="6.3500004"
       r="6.0854168" />
    <circle
       style="display:inline;fill:#f8c574;stroke:#000000;stroke-width:0.529167;stroke-dasharray:none"
       id="path1-9"
       cy="25.4"
       cx="6.3500004"
       r="6.0854168" />
    <path
       d="M 5.0611898,19.741431 A 5.8208332,5.8208332 0 0 1 9.525,25.4 5.8208332,5.8208332 0 0 1 5.0270833,31.050301 5.8208332,5.8208332 0 0 0 6.35,31.220833 5.8208332,5.8208332 0 0 0 12.170833,25.4 5.8208332,5.8208332 0 0 0 6.35,19.579167 5.8208332,5.8208332 0 0 0 5.0611898,19.741431 Z"
       style="display:inline;fill:#ff6a00;fill-opacity:1;stroke:#000000;stroke-width:0"
       id="path13" />
  </g>
  <g
     inkscape:groupmode="layer"
     id="g3"
     inkscape:label="Sniper"
     style="display:inline">
    <ellipse
       style="display:inline;fill:#f8c574;stroke:#000000;stroke-width:0.529167;stroke-linecap:square;stroke-linejoin:miter;stroke-miterlimit:4;stroke-dasharray:none;paint-order:normal"
       id="ellipse2-9-2-6"
       cx="16.668751"
       cy="7.4083338"
       rx="1.8520833"
       ry="1.8520836" />
    <path
       d="M 13.49375,7.4083333 V 9.525 h 0.01945 2.847464 0.01945 V 9.0712806 8.995833 7.9375 7.8620524 7.4083333 H 16.360664 13.5132 Z"
       style="display:inline;fill:#999999;stroke:#000000;stroke-width:0.52916666;stroke-linecap:round;stroke-linejoin:round;stroke-dasharray:none"
       id="path2" />
    <path
       d="m 19.988066,7.9375 v 1.058333 0.2645832 h 0.0099 1.42345 0.0099 V 8.9203854 8.0129476 7.6729165 h -0.0099 -1.42345 -0.0099 z"
       style="display:inline;fill:#333333;fill-opacity:1;stroke:#000000;stroke-width:0.52916666;stroke-linecap:round;stroke-linejoin:round;stroke-dasharray:none"
       id="path7" />
    <path
       d="m 16.380113,7.9375 v 1.058333 h 0.02424 3.559471 0.02424 V 7.9375 h -0.02424 -3.559472 z"
       style="display:inline;fill:#666666;fill-opacity:1;stroke:#000000;stroke-width:0.52916666;stroke-linecap:round;stroke-linejoin:round;stroke-dasharray:none"
       id="path6" />
    <ellipse
       style="display:inline;fill:#f8c574;stroke:#000000;stroke-width:0.529167;stroke-linecap:square;stroke-linejoin:miter;stroke-miterlimit:4;stroke-dasharray:none;paint-order:normal"
       id="ellipse2"
       cx="12.7"
       cy="8.9958334"
       rx="1.8520833"
       ry="1.8520836" />
    <path
       d="m 24.077083,23.94478 -2.645833,0.992187 v 0.926042 l 2.645833,0.992188 v -0.926042 -0.06615 -0.926042 -0.06614 z"
       style="display:inline;fill:#ff6a00;fill-opacity:1;stroke:#000000;stroke-width:0.529167;stroke-linecap:round;stroke-linejoin:round;stroke-dasharray:none"
       id="path3" />
    <ellipse
       style="display:inline;fill:#f8c574;stroke:#000000;stroke-width:0.529167;stroke-linecap:square;stroke-linejoin:miter;stroke-miterlimit:4;stroke-dasharray:none;paint-order:normal"
       id="ellipse2-9-2-6-9"
       cx="16.668751"
       cy="24.341667"
       rx="1.8520833"
       ry="1.8520836" />
    <path
       d="m 13.493751,24.341667 v 2.116667 h 0.01945 2.847464 0.01945 v -0.45372 -0.07545 -1.058333 -0.07545 -0.453719 h -0.01945 -2.847464 z"
       style="display:inline;fill:#999999;stroke:#000000;stroke-width:0.529167;stroke-linecap:round;stroke-linejoin:round;stroke-dasharray:none"
       id="path2-5" />
    <path
       d="m 19.988067,24.870834 v 1.058333 0.264583 h 0.0099 1.42345 0.0099 V 25.853719 24.946281 24.60625 h -0.0099 -1.42345 -0.0099 z"
       style="display:inline;fill:#333333;fill-opacity:1;stroke:#000000;stroke-width:0.529167;stroke-linecap:round;stroke-linejoin:round;stroke-dasharray:none"
       id="path7-3" />
    <path
       d="m 16.380114,24.870834 v 1.058333 h 0.02424 3.559471 0.02424 v -1.058333 h -0.02424 -3.559472 z"
       style="display:inline;fill:#666666;fill-opacity:1;stroke:#000000;stroke-width:0.529167;stroke-linecap:round;stroke-linejoin:round;stroke-dasharray:none"
       id="path6-6" />
    <ellipse
       style="display:inline;fill:#f8c574;stroke:#000000;stroke-width:0.529167;stroke-linecap:square;stroke-linejoin:miter;stroke-miterlimit:4;stroke-dasharray:none;paint-order:normal"
       id="ellipse2-2"
       cx="12.7"
       cy="25.929167"
       rx="1.8520833"
       ry="1.8520836" />
  </g>
</svg>
